<mxfile host="app.diagrams.net" modified="2024-02-24T05:42:37.808Z" agent="Mozilla/5.0 (Windows NT 10.0; Win64; x64) AppleWebKit/537.36 (KHTML, like Gecko) Chrome/92.0.4515.131 Safari/537.36 Edg/92.0.902.67" etag="ucngHpr6NZJFOnOICEqO" version="23.1.6" type="github">
  <diagram id="6a731a19-8d31-9384-78a2-239565b7b9f0" name="Page-1">
    <mxGraphModel dx="1114" dy="594" grid="1" gridSize="10" guides="1" tooltips="1" connect="1" arrows="1" fold="1" page="1" pageScale="1" pageWidth="1169" pageHeight="827" background="none" math="0" shadow="0">
      <root>
        <mxCell id="0" />
        <mxCell id="1" parent="0" />
        <mxCell id="1746" value="" style="edgeStyle=none;rounded=0;jumpStyle=none;html=1;shadow=0;labelBackgroundColor=none;startArrow=none;startFill=0;endArrow=classic;endFill=1;jettySize=auto;orthogonalLoop=1;strokeColor=#2F5B7C;strokeWidth=3;fontFamily=Helvetica;fontSize=16;fontColor=#23445D;spacing=5;" parent="1" source="1749" target="1771" edge="1">
          <mxGeometry relative="1" as="geometry" />
        </mxCell>
        <mxCell id="1748" value="" style="edgeStyle=none;rounded=0;jumpStyle=none;html=1;shadow=0;labelBackgroundColor=none;startArrow=none;startFill=0;endArrow=classic;endFill=1;jettySize=auto;orthogonalLoop=1;strokeColor=#2F5B7C;strokeWidth=3;fontFamily=Helvetica;fontSize=16;fontColor=#23445D;spacing=5;" parent="1" source="1749" target="1753" edge="1">
          <mxGeometry relative="1" as="geometry" />
        </mxCell>
        <mxCell id="1749" value="&lt;p data-pm-slice=&quot;1 1 [&amp;quot;table&amp;quot;,{&amp;quot;isNumberColumnEnabled&amp;quot;:false,&amp;quot;layout&amp;quot;:&amp;quot;default&amp;quot;,&amp;quot;__autoSize&amp;quot;:false,&amp;quot;localId&amp;quot;:&amp;quot;d7b7b813-7fd5-4aca-a20f-437aed69442e&amp;quot;,&amp;quot;width&amp;quot;:748},&amp;quot;tableRow&amp;quot;,null,&amp;quot;tableCell&amp;quot;,{&amp;quot;colspan&amp;quot;:1,&amp;quot;rowspan&amp;quot;:1,&amp;quot;colwidth&amp;quot;:[748],&amp;quot;background&amp;quot;:null}]&quot;&gt;jde_intransit (view)&lt;/p&gt;" style="rounded=1;whiteSpace=wrap;html=1;shadow=0;labelBackgroundColor=none;strokeColor=none;strokeWidth=3;fillColor=#2F5B7C;fontFamily=Helvetica;fontSize=16;fontColor=#FFFFFF;align=center;fontStyle=1;spacing=5;arcSize=7;perimeterSpacing=2;" parent="1" vertex="1">
          <mxGeometry x="495" y="380.5" width="150" height="70" as="geometry" />
        </mxCell>
        <mxCell id="1753" value="&lt;p data-pm-slice=&quot;1 1 [&amp;quot;table&amp;quot;,{&amp;quot;isNumberColumnEnabled&amp;quot;:false,&amp;quot;layout&amp;quot;:&amp;quot;default&amp;quot;,&amp;quot;__autoSize&amp;quot;:false,&amp;quot;localId&amp;quot;:&amp;quot;7d61094d-cac1-4d27-a6be-daf33ddf9827&amp;quot;,&amp;quot;width&amp;quot;:760},&amp;quot;tableRow&amp;quot;,null,&amp;quot;tableCell&amp;quot;,{&amp;quot;colspan&amp;quot;:1,&amp;quot;rowspan&amp;quot;:1,&amp;quot;colwidth&amp;quot;:[760],&amp;quot;background&amp;quot;:null},&amp;quot;bulletList&amp;quot;,null,&amp;quot;listItem&amp;quot;,null]&quot;&gt;f4211&lt;br&gt;Sales Order Detail File&lt;/p&gt;" style="rounded=1;whiteSpace=wrap;html=1;shadow=0;labelBackgroundColor=none;strokeColor=none;strokeWidth=3;fillColor=#e85642;fontFamily=Helvetica;fontSize=14;fontColor=#FFFFFF;align=center;spacing=5;fontStyle=1;arcSize=7;perimeterSpacing=2;" parent="1" vertex="1">
          <mxGeometry x="215" y="385.5" width="150" height="60" as="geometry" />
        </mxCell>
        <mxCell id="1771" value="&lt;p data-pm-slice=&quot;1 1 [&amp;quot;table&amp;quot;,{&amp;quot;isNumberColumnEnabled&amp;quot;:false,&amp;quot;layout&amp;quot;:&amp;quot;default&amp;quot;,&amp;quot;__autoSize&amp;quot;:false,&amp;quot;localId&amp;quot;:&amp;quot;7d61094d-cac1-4d27-a6be-daf33ddf9827&amp;quot;,&amp;quot;width&amp;quot;:760},&amp;quot;tableRow&amp;quot;,null,&amp;quot;tableCell&amp;quot;,{&amp;quot;colspan&amp;quot;:1,&amp;quot;rowspan&amp;quot;:1,&amp;quot;colwidth&amp;quot;:[760],&amp;quot;background&amp;quot;:null},&amp;quot;bulletList&amp;quot;,null,&amp;quot;listItem&amp;quot;,null]&quot;&gt;f0006&lt;br&gt;&lt;span style=&quot;background-color: initial;&quot;&gt;Business Unit Master&lt;/span&gt;&lt;/p&gt;" style="rounded=1;whiteSpace=wrap;html=1;shadow=0;labelBackgroundColor=none;strokeColor=none;strokeWidth=3;fillColor=#12aab5;fontFamily=Helvetica;fontSize=14;fontColor=#FFFFFF;align=center;spacing=5;fontStyle=1;arcSize=7;perimeterSpacing=2;" parent="1" vertex="1">
          <mxGeometry x="795" y="385.4999999999999" width="150" height="60" as="geometry" />
        </mxCell>
      </root>
    </mxGraphModel>
  </diagram>
</mxfile>
